<svg xmlns="http://www.w3.org/2000/svg" viewBox="0 0 38 12" width="608" height="192" shape-rendering="crispEdges">
<rect width="38" height="12" fill="#0d0d0d"/>
<rect x="2" y="2" width="1" height="1" fill="#8f8f8f"/>
<rect x="3" y="2" width="1" height="1" fill="#8f8f8f"/>
<rect x="6" y="2" width="1" height="1" fill="#8f8f8f"/>
<rect x="7" y="2" width="1" height="1" fill="#8f8f8f"/>
<rect x="2" y="3" width="1" height="1" fill="#6e6e6e"/>
<rect x="3" y="3" width="1" height="1" fill="#6e6e6e"/>
<rect x="6" y="3" width="1" height="1" fill="#6e6e6e"/>
<rect x="7" y="3" width="1" height="1" fill="#6e6e6e"/>
<rect x="2" y="4" width="1" height="1" fill="#6e6e6e"/>
<rect x="3" y="4" width="1" height="1" fill="#6e6e6e"/>
<rect x="6" y="4" width="1" height="1" fill="#6e6e6e"/>
<rect x="7" y="4" width="1" height="1" fill="#6e6e6e"/>
<rect x="2" y="5" width="1" height="1" fill="#6e6e6e"/>
<rect x="3" y="5" width="1" height="1" fill="#6e6e6e"/>
<rect x="6" y="5" width="1" height="1" fill="#6e6e6e"/>
<rect x="7" y="5" width="1" height="1" fill="#6e6e6e"/>
<rect x="2" y="6" width="1" height="1" fill="#6e6e6e"/>
<rect x="3" y="6" width="1" height="1" fill="#6e6e6e"/>
<rect x="6" y="6" width="1" height="1" fill="#6e6e6e"/>
<rect x="7" y="6" width="1" height="1" fill="#6e6e6e"/>
<rect x="2" y="7" width="1" height="1" fill="#6e6e6e"/>
<rect x="3" y="7" width="1" height="1" fill="#6e6e6e"/>
<rect x="6" y="7" width="1" height="1" fill="#6e6e6e"/>
<rect x="7" y="7" width="1" height="1" fill="#6e6e6e"/>
<rect x="2" y="8" width="1" height="1" fill="#6e6e6e"/>
<rect x="3" y="8" width="1" height="1" fill="#6e6e6e"/>
<rect x="4" y="8" width="1" height="1" fill="#8f8f8f"/>
<rect x="5" y="8" width="1" height="1" fill="#8f8f8f"/>
<rect x="6" y="8" width="1" height="1" fill="#6e6e6e"/>
<rect x="7" y="8" width="1" height="1" fill="#6e6e6e"/>
<rect x="2" y="9" width="1" height="1" fill="#4f4f4f"/>
<rect x="3" y="9" width="1" height="1" fill="#4f4f4f"/>
<rect x="4" y="9" width="1" height="1" fill="#4f4f4f"/>
<rect x="5" y="9" width="1" height="1" fill="#4f4f4f"/>
<rect x="6" y="9" width="1" height="1" fill="#4f4f4f"/>
<rect x="7" y="9" width="1" height="1" fill="#4f4f4f"/>
<rect x="9" y="2" width="1" height="1" fill="#8f8f8f"/>
<rect x="10" y="2" width="1" height="1" fill="#8f8f8f"/>
<rect x="11" y="2" width="1" height="1" fill="#8f8f8f"/>
<rect x="12" y="2" width="1" height="1" fill="#8f8f8f"/>
<rect x="13" y="2" width="1" height="1" fill="#8f8f8f"/>
<rect x="14" y="2" width="1" height="1" fill="#8f8f8f"/>
<rect x="9" y="3" width="1" height="1" fill="#6e6e6e"/>
<rect x="10" y="3" width="1" height="1" fill="#6e6e6e"/>
<rect x="11" y="3" width="1" height="1" fill="#4f4f4f"/>
<rect x="12" y="3" width="1" height="1" fill="#4f4f4f"/>
<rect x="13" y="3" width="1" height="1" fill="#4f4f4f"/>
<rect x="14" y="3" width="1" height="1" fill="#4f4f4f"/>
<rect x="9" y="4" width="1" height="1" fill="#6e6e6e"/>
<rect x="10" y="4" width="1" height="1" fill="#6e6e6e"/>
<rect x="9" y="5" width="1" height="1" fill="#6e6e6e"/>
<rect x="10" y="5" width="1" height="1" fill="#6e6e6e"/>
<rect x="11" y="5" width="1" height="1" fill="#8f8f8f"/>
<rect x="12" y="5" width="1" height="1" fill="#8f8f8f"/>
<rect x="13" y="5" width="1" height="1" fill="#8f8f8f"/>
<rect x="14" y="5" width="1" height="1" fill="#8f8f8f"/>
<rect x="9" y="6" width="1" height="1" fill="#4f4f4f"/>
<rect x="10" y="6" width="1" height="1" fill="#4f4f4f"/>
<rect x="11" y="6" width="1" height="1" fill="#4f4f4f"/>
<rect x="12" y="6" width="1" height="1" fill="#4f4f4f"/>
<rect x="13" y="6" width="1" height="1" fill="#6e6e6e"/>
<rect x="14" y="6" width="1" height="1" fill="#6e6e6e"/>
<rect x="13" y="7" width="1" height="1" fill="#6e6e6e"/>
<rect x="14" y="7" width="1" height="1" fill="#6e6e6e"/>
<rect x="9" y="8" width="1" height="1" fill="#8f8f8f"/>
<rect x="10" y="8" width="1" height="1" fill="#8f8f8f"/>
<rect x="11" y="8" width="1" height="1" fill="#8f8f8f"/>
<rect x="12" y="8" width="1" height="1" fill="#8f8f8f"/>
<rect x="13" y="8" width="1" height="1" fill="#6e6e6e"/>
<rect x="14" y="8" width="1" height="1" fill="#6e6e6e"/>
<rect x="9" y="9" width="1" height="1" fill="#4f4f4f"/>
<rect x="10" y="9" width="1" height="1" fill="#4f4f4f"/>
<rect x="11" y="9" width="1" height="1" fill="#4f4f4f"/>
<rect x="12" y="9" width="1" height="1" fill="#4f4f4f"/>
<rect x="13" y="9" width="1" height="1" fill="#4f4f4f"/>
<rect x="14" y="9" width="1" height="1" fill="#4f4f4f"/>
<rect x="16" y="2" width="1" height="1" fill="#8f8f8f"/>
<rect x="17" y="2" width="1" height="1" fill="#8f8f8f"/>
<rect x="16" y="3" width="1" height="1" fill="#6e6e6e"/>
<rect x="17" y="3" width="1" height="1" fill="#6e6e6e"/>
<rect x="16" y="4" width="1" height="1" fill="#6e6e6e"/>
<rect x="17" y="4" width="1" height="1" fill="#6e6e6e"/>
<rect x="16" y="5" width="1" height="1" fill="#6e6e6e"/>
<rect x="17" y="5" width="1" height="1" fill="#6e6e6e"/>
<rect x="18" y="5" width="1" height="1" fill="#8f8f8f"/>
<rect x="19" y="5" width="1" height="1" fill="#8f8f8f"/>
<rect x="20" y="5" width="1" height="1" fill="#8f8f8f"/>
<rect x="21" y="5" width="1" height="1" fill="#8f8f8f"/>
<rect x="16" y="6" width="1" height="1" fill="#6e6e6e"/>
<rect x="17" y="6" width="1" height="1" fill="#6e6e6e"/>
<rect x="18" y="6" width="1" height="1" fill="#4f4f4f"/>
<rect x="19" y="6" width="1" height="1" fill="#4f4f4f"/>
<rect x="20" y="6" width="1" height="1" fill="#6e6e6e"/>
<rect x="21" y="6" width="1" height="1" fill="#6e6e6e"/>
<rect x="16" y="7" width="1" height="1" fill="#6e6e6e"/>
<rect x="17" y="7" width="1" height="1" fill="#6e6e6e"/>
<rect x="20" y="7" width="1" height="1" fill="#6e6e6e"/>
<rect x="21" y="7" width="1" height="1" fill="#6e6e6e"/>
<rect x="16" y="8" width="1" height="1" fill="#6e6e6e"/>
<rect x="17" y="8" width="1" height="1" fill="#6e6e6e"/>
<rect x="20" y="8" width="1" height="1" fill="#6e6e6e"/>
<rect x="21" y="8" width="1" height="1" fill="#6e6e6e"/>
<rect x="16" y="9" width="1" height="1" fill="#4f4f4f"/>
<rect x="17" y="9" width="1" height="1" fill="#4f4f4f"/>
<rect x="20" y="9" width="1" height="1" fill="#4f4f4f"/>
<rect x="21" y="9" width="1" height="1" fill="#4f4f4f"/>
<rect x="23" y="2" width="1" height="1" fill="#ffffff"/>
<rect x="24" y="2" width="1" height="1" fill="#ffffff"/>
<rect x="25" y="2" width="1" height="1" fill="#ffffff"/>
<rect x="26" y="2" width="1" height="1" fill="#ffffff"/>
<rect x="27" y="2" width="1" height="1" fill="#ffffff"/>
<rect x="28" y="2" width="1" height="1" fill="#ffffff"/>
<rect x="23" y="3" width="1" height="1" fill="#ececec"/>
<rect x="24" y="3" width="1" height="1" fill="#ececec"/>
<rect x="25" y="3" width="1" height="1" fill="#b9b9b9"/>
<rect x="26" y="3" width="1" height="1" fill="#b9b9b9"/>
<rect x="27" y="3" width="1" height="1" fill="#b9b9b9"/>
<rect x="28" y="3" width="1" height="1" fill="#b9b9b9"/>
<rect x="23" y="4" width="1" height="1" fill="#ececec"/>
<rect x="24" y="4" width="1" height="1" fill="#ececec"/>
<rect x="23" y="5" width="1" height="1" fill="#ececec"/>
<rect x="24" y="5" width="1" height="1" fill="#ececec"/>
<rect x="25" y="5" width="1" height="1" fill="#ffffff"/>
<rect x="26" y="5" width="1" height="1" fill="#ffffff"/>
<rect x="27" y="5" width="1" height="1" fill="#ffffff"/>
<rect x="28" y="5" width="1" height="1" fill="#ffffff"/>
<rect x="23" y="6" width="1" height="1" fill="#ececec"/>
<rect x="24" y="6" width="1" height="1" fill="#ececec"/>
<rect x="25" y="6" width="1" height="1" fill="#b9b9b9"/>
<rect x="26" y="6" width="1" height="1" fill="#b9b9b9"/>
<rect x="27" y="6" width="1" height="1" fill="#b9b9b9"/>
<rect x="28" y="6" width="1" height="1" fill="#b9b9b9"/>
<rect x="23" y="7" width="1" height="1" fill="#ececec"/>
<rect x="24" y="7" width="1" height="1" fill="#ececec"/>
<rect x="23" y="8" width="1" height="1" fill="#ececec"/>
<rect x="24" y="8" width="1" height="1" fill="#ececec"/>
<rect x="25" y="8" width="1" height="1" fill="#ffffff"/>
<rect x="26" y="8" width="1" height="1" fill="#ffffff"/>
<rect x="27" y="8" width="1" height="1" fill="#ffffff"/>
<rect x="28" y="8" width="1" height="1" fill="#ffffff"/>
<rect x="23" y="9" width="1" height="1" fill="#b9b9b9"/>
<rect x="24" y="9" width="1" height="1" fill="#b9b9b9"/>
<rect x="25" y="9" width="1" height="1" fill="#b9b9b9"/>
<rect x="26" y="9" width="1" height="1" fill="#b9b9b9"/>
<rect x="27" y="9" width="1" height="1" fill="#b9b9b9"/>
<rect x="28" y="9" width="1" height="1" fill="#b9b9b9"/>
<rect x="30" y="2" width="1" height="1" fill="#ffffff"/>
<rect x="31" y="2" width="1" height="1" fill="#ffffff"/>
<rect x="32" y="2" width="1" height="1" fill="#ffffff"/>
<rect x="33" y="2" width="1" height="1" fill="#ffffff"/>
<rect x="34" y="2" width="1" height="1" fill="#ffffff"/>
<rect x="35" y="2" width="1" height="1" fill="#ffffff"/>
<rect x="30" y="3" width="1" height="1" fill="#ececec"/>
<rect x="31" y="3" width="1" height="1" fill="#ececec"/>
<rect x="32" y="3" width="1" height="1" fill="#b9b9b9"/>
<rect x="33" y="3" width="1" height="1" fill="#b9b9b9"/>
<rect x="34" y="3" width="1" height="1" fill="#ececec"/>
<rect x="35" y="3" width="1" height="1" fill="#ececec"/>
<rect x="30" y="4" width="1" height="1" fill="#ececec"/>
<rect x="31" y="4" width="1" height="1" fill="#ececec"/>
<rect x="34" y="4" width="1" height="1" fill="#ececec"/>
<rect x="35" y="4" width="1" height="1" fill="#ececec"/>
<rect x="30" y="5" width="1" height="1" fill="#ececec"/>
<rect x="31" y="5" width="1" height="1" fill="#ececec"/>
<rect x="34" y="5" width="1" height="1" fill="#b9b9b9"/>
<rect x="35" y="5" width="1" height="1" fill="#b9b9b9"/>
<rect x="30" y="6" width="1" height="1" fill="#ececec"/>
<rect x="31" y="6" width="1" height="1" fill="#ececec"/>
<rect x="30" y="7" width="1" height="1" fill="#ececec"/>
<rect x="31" y="7" width="1" height="1" fill="#ececec"/>
<rect x="30" y="8" width="1" height="1" fill="#ececec"/>
<rect x="31" y="8" width="1" height="1" fill="#ececec"/>
<rect x="30" y="9" width="1" height="1" fill="#b9b9b9"/>
<rect x="31" y="9" width="1" height="1" fill="#b9b9b9"/>
</svg>